HIERARCHY
ROOT joint_Root
{
	OFFSET 0.0 0.0 0.0
	CHANNELS 6 Xposition Yposition Zposition Zrotation Xrotation Yrotation 
	JOINT Hips
	{
		OFFSET -0.726466 93.3139 -2.00062
		CHANNELS 6 Xposition Yposition Zposition Zrotation Xrotation Yrotation 
		JOINT Spine
		{
			OFFSET 15.7357 0.0 0.0
			CHANNELS 6 Xposition Yposition Zposition Zrotation Xrotation Yrotation 
			JOINT Chest
			{
				OFFSET 8.98455 -0.406207 0.0
				CHANNELS 6 Xposition Yposition Zposition Zrotation Xrotation Yrotation 
				JOINT Neck
				{
					OFFSET 16.3773 0.0 0.0
					CHANNELS 6 Xposition Yposition Zposition Zrotation Xrotation Yrotation 
					JOINT Head
					{
						OFFSET 6.45672 0.0 0.0
						CHANNELS 6 Xposition Yposition Zposition Zrotation Xrotation Yrotation 
						End Site
						{
							OFFSET 0.0 0.0 0.0
						}
					}
				}
				JOINT Shoulder_L
				{
					OFFSET 12.9942 -0.242716 4.98039
					CHANNELS 6 Xposition Yposition Zposition Zrotation Xrotation Yrotation 
					JOINT UpperArm_L
					{
						OFFSET 5.34809 0.0 0.0
						CHANNELS 6 Xposition Yposition Zposition Zrotation Xrotation Yrotation 
						JOINT LowerArm_L
						{
							OFFSET 24.3286 1.87007e-05 0.0
							CHANNELS 6 Xposition Yposition Zposition Zrotation Xrotation Yrotation 
							JOINT Hand_L
							{
								OFFSET 22.2916 0.0 0.0
								CHANNELS 6 Xposition Yposition Zposition Zrotation Xrotation Yrotation 
								End Site
								{
									OFFSET 0.0 0.0 0.0
								}
							}
						}
					}
				}
				JOINT Shoulder_R
				{
					OFFSET 12.9945 -0.242716 -4.98039
					CHANNELS 6 Xposition Yposition Zposition Zrotation Xrotation Yrotation 
					JOINT UpperArm_R
					{
						OFFSET -5.34813 0.0 0.0
						CHANNELS 6 Xposition Yposition Zposition Zrotation Xrotation Yrotation 
						JOINT LowerArm_R
						{
							OFFSET -24.3289 0.000322201 0.0
							CHANNELS 6 Xposition Yposition Zposition Zrotation Xrotation Yrotation 
							JOINT Hand_R
							{
								OFFSET -22.2915 -0.000108084 0.0
								CHANNELS 6 Xposition Yposition Zposition Zrotation Xrotation Yrotation 
								End Site
								{
									OFFSET 0.0 0.0 0.0
								}
							}
						}
					}
				}
			}
		}
		JOINT UpperLeg_L
		{
			OFFSET -2.19248 -6.46944 0.0
			CHANNELS 6 Xposition Yposition Zposition Zrotation Xrotation Yrotation 
			JOINT LowerLeg_L
			{
				OFFSET 39.0811 0.0 -1.23785e-05
				CHANNELS 6 Xposition Yposition Zposition Zrotation Xrotation Yrotation 
				JOINT Foot_L
				{
					OFFSET 40.9854 0.0 -1.26872e-05
					CHANNELS 6 Xposition Yposition Zposition Zrotation Xrotation Yrotation 
					JOINT Toes_L
					{
						OFFSET 11.7543 0.0 0.0
						CHANNELS 6 Xposition Yposition Zposition Zrotation Xrotation Yrotation 
						End Site
						{
							OFFSET 0.0 0.0 0.0
						}
					}
				}
			}
		}
		JOINT UpperLeg_R
		{
			OFFSET -2.19251 6.46944 0.0
			CHANNELS 6 Xposition Yposition Zposition Zrotation Xrotation Yrotation 
			JOINT LowerLeg_R
			{
				OFFSET -39.0811 -0.00228153 -0.0401928
				CHANNELS 6 Xposition Yposition Zposition Zrotation Xrotation Yrotation 
				JOINT Foot_R
				{
					OFFSET -40.9854 0.0 0.0
					CHANNELS 6 Xposition Yposition Zposition Zrotation Xrotation Yrotation 
					JOINT Toes_R
					{
						OFFSET -11.7543 0.0 0.0
						CHANNELS 6 Xposition Yposition Zposition Zrotation Xrotation Yrotation 
						End Site
						{
							OFFSET 0.0 0.0 0.0
						}
					}
				}
			}
		}
	}
}
MOTION
Frames:	6
Frame Time:	0.0333333
0.000000 0.000000 0.000000 0.000000 0.000000 -0.000000 3.657510 91.828200 -444.948000 87.157500 3.549060 -9.090120 15.735700 0.000005 -0.000001 66.618200 81.376600 -64.284800 8.984550 -0.406207 -0.000000 8.251680 -6.804320 5.158100 16.377300 -0.000001 -0.000001 -2.386690 -2.683070 -0.402984 6.456720 -0.000001 -0.000000 -6.585670 2.384870 2.779240 12.994200 -0.242716 4.980390 -87.716400 -8.396120 -74.724500 5.348090 -0.000007 -0.000001 -73.843700 25.650000 -20.988200 24.328600 0.000019 0.000005 -17.119100 2.341200 -97.551100 22.291600 -0.000001 0.000005 10.636900 5.654430 -15.453800 12.994500 -0.242716 -4.980390 90.056300 -0.139510 -68.036700 -5.348130 -0.000001 -0.000004 -78.269300 31.431900 21.513400 -24.328900 0.000322 -0.000009 -8.391160 -2.342590 -74.508600 -22.291500 -0.000108 -0.000004 19.325400 5.584240 -10.445300 -2.192480 -6.469440 -0.000000 -175.871000 0.785394 1.135540 39.081100 -0.000007 -0.000012 -0.059094 0.051514 48.922100 40.985400 -0.000006 -0.000013 -2.752930 -1.433320 -40.590500 11.754300 -0.000000 0.000003 -0.006608 -0.076271 -19.681400 -2.192510 6.469440 -0.000001 -168.420000 12.756500 147.727000 -39.081100 -0.002282 -0.040193 -0.034123 0.058171 32.751500 -40.985400 0.000008 0.000006 -1.404610 4.206720 -69.293400 -11.754300 -0.000006 -0.000006 -0.035151 -0.240172 -26.426000
0.000000 0.000000 0.000000 0.000000 0.000000 -0.000000 3.638030 89.600000 -438.366000 86.732300 1.618070 -7.027080 15.735700 0.000005 -0.000001 74.448600 81.217900 -71.882800 8.984550 -0.406207 -0.000000 9.287750 -4.649170 5.507520 16.377300 -0.000001 -0.000001 -2.063420 -2.589220 -0.903004 6.456720 -0.000001 -0.000000 -7.220400 1.443600 1.927890 12.994200 -0.242716 4.980390 -87.873200 -7.657060 -74.425500 5.348090 -0.000007 -0.000001 -74.215000 30.281500 -16.009700 24.328600 0.000019 0.000005 -15.867400 -0.446481 -88.418300 22.291600 -0.000001 0.000005 10.145200 5.653210 -15.313800 12.994500 -0.242716 -4.980390 89.496500 1.292580 -68.704900 -5.348130 -0.000001 -0.000004 -75.203100 30.596000 13.524500 -24.328900 0.000322 -0.000009 -9.400950 -2.114810 -77.428800 -22.291500 -0.000108 -0.000004 19.988000 5.589710 -10.745800 -2.192480 -6.469440 -0.000000 -175.582000 -0.931457 -4.665470 39.081100 -0.000007 -0.000012 -0.098352 0.037787 68.986000 40.985400 -0.000006 -0.000013 -3.296290 -2.591310 -39.479500 11.754300 -0.000000 0.000003 -0.008636 -0.093158 -20.370900 -2.192510 6.469440 -0.000001 -168.170000 12.084000 150.478000 -39.081100 -0.002282 -0.040193 0.000280 0.004070 36.462100 -40.985400 0.000008 0.000006 3.741500 2.197700 -65.098000 -11.754300 -0.000006 -0.000006 -0.032921 -0.230552 -26.025700
0.000000 0.000000 0.000000 0.000000 0.000000 -0.000000 3.349080 86.386900 -432.158000 86.530300 -0.234145 -5.579790 15.735700 0.000005 -0.000001 82.317100 81.375000 -79.539300 8.984550 -0.406207 -0.000000 9.395480 -2.253610 5.736980 16.377300 -0.000001 -0.000001 -1.928920 -2.535850 -1.571100 6.456720 -0.000001 -0.000000 -6.152000 0.347121 0.900985 12.994200 -0.242716 4.980390 -88.108300 -6.617220 -74.006600 5.348090 -0.000007 -0.000001 -74.430800 34.865500 -10.505400 24.328600 0.000019 0.000005 -13.085100 -3.128370 -76.756900 22.291600 -0.000001 0.000005 7.506390 5.649120 -14.842500 12.994500 -0.242716 -4.980390 88.691900 3.437000 -69.147600 -5.348130 -0.000001 -0.000004 -69.899400 30.196200 3.936470 -24.328900 0.000322 -0.000009 -10.256200 -1.435690 -82.110400 -22.291500 -0.000108 -0.000004 21.652000 5.582480 -10.361400 -2.192480 -6.469440 -0.000000 -175.044000 -3.216240 -13.095300 39.081100 -0.000007 -0.000012 -0.210080 0.000997 89.730600 40.985400 -0.000006 -0.000013 -0.347883 -5.478960 -40.272700 11.754300 -0.000000 0.000003 -0.008945 -0.095591 -20.470300 -2.192510 6.469440 -0.000001 -167.506000 9.445560 151.237000 -39.081100 -0.002282 -0.040193 0.120565 -0.108269 47.294900 -40.985400 0.000008 0.000006 13.503900 -2.987000 -74.623100 -11.754300 -0.000006 -0.000006 -0.020786 -0.171605 -23.585700
0.000000 0.000000 0.000000 0.000000 0.000000 -0.000000 3.184560 83.575600 -426.672000 85.010600 -3.639410 -2.875500 15.735700 0.000005 -0.000001 90.545200 80.400200 -87.320900 8.984550 -0.406207 -0.000000 11.433000 0.284449 6.417460 16.377300 -0.000001 -0.000001 -2.695220 -1.150590 -1.345340 6.456720 -0.000001 -0.000000 -5.797120 0.438769 -0.923615 12.994200 -0.242716 4.980390 -88.433000 -5.100470 -72.892500 5.348090 -0.000007 -0.000001 -75.493800 36.063400 -3.971280 24.328600 0.000019 0.000005 -10.349500 -5.395390 -62.742900 22.291600 -0.000001 0.000005 3.012100 5.636820 -13.829900 12.994500 -0.242716 -4.980390 87.906900 5.911470 -70.457800 -5.348130 -0.000001 -0.000004 -62.225400 29.741000 -11.119900 -24.328900 0.000322 -0.000009 -12.369400 -0.590767 -87.302700 -22.291500 -0.000108 -0.000004 23.129600 5.527320 -7.723250 -2.192480 -6.469440 -0.000000 -174.084000 -5.159080 -21.691300 39.081100 -0.000007 -0.000012 -0.367794 -0.112593 107.023000 40.985400 -0.000006 -0.000013 3.237230 -7.307190 -40.533400 11.754300 -0.000000 0.000003 -0.009464 -0.099602 -20.634300 -2.192510 6.469440 -0.000001 -166.970000 5.275380 154.294000 -39.081100 -0.002282 -0.040193 0.184341 -0.122825 55.856900 -40.985400 0.000008 0.000006 12.579000 -5.726800 -80.660600 -11.754300 -0.000006 -0.000006 -0.010916 -0.110361 -21.070700
0.000000 0.000000 0.000000 0.000000 0.000000 -0.000000 3.116400 81.901000 -421.211000 85.567200 -6.232810 -2.670500 15.735700 0.000005 -0.000001 94.228900 80.154300 -91.236000 8.984550 -0.406207 -0.000000 11.841100 1.546070 5.823850 16.377300 -0.000001 -0.000001 -2.502080 -0.050688 -1.167070 6.456720 -0.000001 -0.000000 -6.150360 1.547560 -2.169730 12.994200 -0.242716 4.980390 -88.748900 -3.888560 -72.148900 5.348090 -0.000007 -0.000001 -76.868100 35.151100 3.622800 24.328600 0.000019 0.000005 -7.009250 -6.343750 -47.989200 22.291600 -0.000001 0.000005 1.237330 5.614060 -12.202000 12.994500 -0.242716 -4.980390 87.870900 6.466080 -71.731300 -5.348130 -0.000001 -0.000004 -57.881500 27.916800 -27.601400 -24.328900 0.000322 -0.000009 -12.863000 0.656139 -92.875300 -22.291500 -0.000108 -0.000004 23.973300 5.497010 -6.416060 -2.192480 -6.469440 -0.000000 -176.153000 -5.195810 -33.129900 39.081100 -0.000007 -0.000012 -0.587546 -0.308775 117.724000 40.985400 -0.000006 -0.000013 7.722800 -5.692480 -42.128800 11.754300 -0.000000 0.000003 -0.008931 -0.095477 -20.465700 -2.192510 6.469440 -0.000001 -168.762000 7.024460 157.546000 -39.081100 -0.002282 -0.040193 0.200780 -0.117132 59.338600 -40.985400 0.000008 0.000006 13.386500 -3.081140 -86.803200 -11.754300 -0.000006 -0.000006 -0.008740 -0.093968 -20.400300
0.000000 0.000000 0.000000 0.000000 0.000000 -0.000000 3.374250 81.803300 -414.882000 87.445100 -8.962720 -2.974080 15.735700 0.000005 -0.000001 100.051000 80.244300 -97.909700 8.984550 -0.406207 -0.000000 11.399600 3.445830 3.937720 16.377300 -0.000001 -0.000001 -2.340770 0.313794 -0.605430 6.456720 -0.000001 -0.000000 -5.353180 1.443260 -2.497800 12.994200 -0.242716 4.980390 -88.859000 -3.403720 -71.457000 5.348090 -0.000007 -0.000001 -77.302200 33.946600 12.847200 24.328600 0.000019 0.000005 0.308803 0.316775 -44.139900 22.291600 -0.000001 0.000005 -0.402388 5.606550 -11.770800 12.994500 -0.242716 -4.980390 88.347900 5.227450 -72.435600 -5.348130 -0.000001 -0.000004 -58.449500 25.010700 -39.674600 -24.328900 0.000322 -0.000009 -10.030100 1.946470 -100.895000 -22.291500 -0.000108 -0.000004 21.270700 5.525990 -7.661020 -2.192480 -6.469440 -0.000000 -179.442000 -5.070420 -41.712200 39.081100 -0.000007 -0.000012 -0.569157 -0.325087 119.734000 40.985400 -0.000006 -0.000013 8.172210 -5.577590 -46.817100 11.754300 -0.000000 0.000003 -0.008991 -0.095947 -20.484900 -2.192510 6.469440 -0.000001 -172.867000 7.319070 163.161000 -39.081100 -0.002282 -0.040193 0.170288 -0.106588 57.463400 -40.985400 0.000008 0.000006 13.335400 -0.375963 -90.025300 -11.754300 -0.000006 -0.000006 -0.346671 -0.457937 -20.839600
